<?xml version="1.0" encoding="iso-8859-1"?>
<!-- Generator: Adobe Illustrator 16.0.0, SVG Export Plug-In . SVG Version: 6.00 Build 0)  -->
<!DOCTYPE svg PUBLIC "-//W3C//DTD SVG 1.1//EN" "http://www.w3.org/Graphics/SVG/1.1/DTD/svg11.dtd">
<svg version="1.1" id="Capa_1" xmlns="http://www.w3.org/2000/svg" xmlns:xlink="http://www.w3.org/1999/xlink" x="0px" y="0px"
	 width="31.84px" height="31.84px" viewBox="0 0 31.84 31.84" style="enable-background:new 0 0 31.84 31.84;" xml:space="preserve"
	>
<g>
	<g>
		<polygon points="19.668,11.234 19.685,11.355 19.501,11.394 19.478,11.652 19.696,11.652 19.986,11.625 20.138,11.447 
			19.979,11.385 19.891,11.284 19.758,11.072 19.696,10.771 19.449,10.821 19.38,10.927 19.38,11.045 19.498,11.126 		"/>
		<polygon points="19.458,11.333 19.472,11.171 19.326,11.108 19.123,11.156 18.975,11.396 18.975,11.553 19.148,11.553 		"/>
		<path d="M15.09,12.305l0.131-0.011l0.083-0.052l0.021-0.104l0.107-0.009l0.042-0.087l-0.099-0.021l-0.085,0.002l-0.045,0.114
			h-0.216v0.111h0.052C15.083,12.25,15.084,12.273,15.09,12.305z"/>
		<polygon points="14.898,12.212 14.806,12.139 14.734,12.227 14.727,12.334 14.883,12.323 		"/>
		<path d="M23.628,3.333c-0.27,0.534-0.125,1.202,0.375,1.566c0.475,0.345,1.109,0.303,1.538-0.06
			c-0.022,0.203-0.1,0.598-0.365,0.891c0.848,0.604,1.132-0.656,0.618-1.189c0.032-0.053,0.063-0.105,0.088-0.16
			c0.187-0.328,0.363-1.143-0.43-1.691c-0.682-0.473-1.196-0.074-1.455,0.207c-0.079,0.059-0.151,0.127-0.218,0.206
			c-0.983-0.485-1.533,0.471-1.011,0.874C23.055,3.479,23.479,3.359,23.628,3.333z M24.005,3.383
			c0.183,0.053,0.469-0.119,0.469-0.119s0.063,0.092-0.141,0.372c0.111,0.161,0.725-0.14,0.725-0.14l-0.279,0.383
			c0.132,0.166,0.69,0.482,0.69,0.482l0.008,0.029c-0.006,0.01-0.011,0.02-0.017,0.026c-0.29,0.398-0.851,0.487-1.25,0.198
			C23.817,4.33,23.729,3.781,24.005,3.383z"/>
		<polygon points="21.49,8.217 21.49,8.218 22.275,7.14 22.461,7.275 21.676,8.354 21.584,8.479 22.081,8.842 22.173,8.715 
			22.064,8.636 22.851,7.558 23.494,8.027 23.763,6.326 24.111,5.916 24.126,7.171 24.603,7.366 24.586,5.364 24.194,5.079 
			23.771,4.77 23.415,4.511 21.559,4.982 21.469,5.476 22.891,5.152 22.68,5.538 21.057,6.25 21.889,6.856 21.103,7.935 
			20.991,7.855 20.9,7.981 21.398,8.344 		"/>
		<path d="M17.712,1.286c-0.084,0.586,0.323,1.127,0.909,1.21c0.585,0.081,1.126-0.324,1.21-0.911
			c0.051-0.365,0.227-0.682-0.027-0.912c-0.153-0.137-0.89-0.297-1.107-0.328c-0.262-0.037-0.631,0.128-0.837,0.258
			C17.602,0.765,17.757,0.959,17.712,1.286z M18.047,1.227c0.2-0.01,0.323,0.075,0.323,0.075l0.349-0.113
			c0,0-0.198,0.217-0.038,0.158c0.346-0.065,0.709,0.032,0.893,0.097c0.001,0.043,0.001,0.085-0.005,0.129
			c-0.062,0.437-0.459,0.74-0.888,0.68c-0.43-0.06-0.727-0.463-0.663-0.898C18.022,1.309,18.035,1.268,18.047,1.227z"/>
		<polygon points="17.744,3.446 17.44,5.329 17.65,5.357 17.464,6.68 17.331,6.661 17.31,6.815 17.918,6.901 17.939,6.747 
			18.127,5.426 18.354,5.458 18.168,6.778 18.146,6.934 18.755,7.021 18.776,6.865 18.644,6.846 18.83,5.525 19.086,5.561 
			19.327,3.856 19.863,4.879 20.18,4.503 19.344,2.773 17.941,2.576 16.483,4.244 16.795,4.681 		"/>
		<path d="M31.819,13.559c-0.131-0.818-0.774-0.916-1.157-0.906c-0.097-0.018-0.197-0.021-0.299-0.016
			c-0.33-1.045-1.4-0.781-1.331-0.125c0.558-0.139,0.937,0.086,1.06,0.176c-0.572,0.175-0.954,0.741-0.871,1.354
			c0.078,0.58,0.549,1.011,1.106,1.068c-0.162,0.124-0.501,0.343-0.896,0.354c0.147,1.028,1.257,0.362,1.287-0.377
			c0.06-0.014,0.118-0.027,0.175-0.048C31.261,14.947,31.972,14.511,31.819,13.559z M30.492,13.895
			c-0.028,0.21,0.13,0.832,0.13,0.832l-0.016,0.026c-0.011,0.002-0.021,0.006-0.031,0.007c-0.487,0.066-0.938-0.276-1.006-0.766
			c-0.065-0.48,0.269-0.925,0.747-1c0.088,0.167,0.409,0.256,0.409,0.256s-0.021,0.109-0.365,0.156
			c-0.038,0.19,0.602,0.425,0.602,0.425L30.492,13.895z"/>
		<polygon points="29.225,14.303 29.152,13.785 29.095,13.348 27.47,12.333 27.05,12.609 28.269,13.413 27.845,13.526 
			26.205,12.849 26.344,13.868 25.021,14.046 25.003,13.913 24.85,13.934 24.932,14.543 25.086,14.522 25.086,14.523 26.407,14.344 
			26.438,14.573 25.117,14.75 24.962,14.772 25.044,15.38 25.199,15.359 25.182,15.226 26.502,15.048 26.609,15.837 28.023,14.854 
			28.562,14.824 27.664,15.703 27.854,16.178 29.288,14.784 		"/>
		<path d="M29.281,9.606c0.335-0.155,0.696-0.181,0.751-0.52c0.031-0.202-0.232-0.906-0.326-1.108
			c-0.109-0.238-0.45-0.459-0.671-0.562c-0.274-0.128-0.355,0.11-0.654,0.248c-0.536,0.249-0.769,0.884-0.521,1.421
			C28.109,9.622,28.744,9.855,29.281,9.606z M28.49,7.957c0.041-0.018,0.082-0.029,0.123-0.042c0.115,0.163,0.111,0.312,0.111,0.312
			l0.284,0.23c0,0-0.29-0.049-0.152,0.053c0.242,0.256,0.355,0.615,0.402,0.804c-0.035,0.023-0.069,0.047-0.11,0.066
			c-0.399,0.184-0.87,0.017-1.052-0.378C27.914,8.61,28.091,8.143,28.49,7.957z"/>
		<polygon points="25.033,8.741 26.586,8.866 24.84,9.634 24.93,9.828 23.719,10.388 23.662,10.265 23.521,10.331 23.778,10.89 
			23.921,10.824 25.131,10.263 25.229,10.472 24.019,11.034 23.875,11.098 24.134,11.657 24.275,11.59 24.22,11.469 25.431,10.909 
			25.538,11.142 27.102,10.417 26.532,11.424 27.021,11.484 28.019,9.843 27.423,8.559 25.231,8.241 		"/>
		<path d="M28.208,24.171c0.5-0.978-0.447-1.542-0.857-1.025c0.493,0.293,0.604,0.72,0.63,0.869c-0.53-0.277-1.2-0.144-1.572,0.352
			c-0.352,0.469-0.32,1.104,0.036,1.539c-0.203-0.026-0.597-0.109-0.885-0.38c-0.618,0.838,0.639,1.142,1.18,0.638
			c0.051,0.032,0.104,0.063,0.158,0.089c0.325,0.19,1.137,0.382,1.698-0.401c0.482-0.675,0.094-1.195-0.187-1.459
			C28.354,24.311,28.285,24.239,28.208,24.171z M27.665,24.715c-0.161,0.108,0.129,0.726,0.129,0.726l-0.379-0.284
			c-0.167,0.129-0.493,0.684-0.493,0.684l-0.028,0.006c-0.01-0.006-0.02-0.01-0.026-0.016c-0.394-0.296-0.474-0.857-0.178-1.253
			c0.292-0.389,0.843-0.469,1.233-0.187c-0.054,0.183,0.112,0.47,0.112,0.47S27.942,24.923,27.665,24.715z"/>
		<polygon points="23.934,24.925 25.936,24.941 26.228,24.553 26.541,24.135 26.807,23.785 26.363,21.919 25.87,21.823 
			26.173,23.249 25.791,23.033 25.103,21.397 24.483,22.219 23.418,21.417 23.5,21.308 23.374,21.214 23.005,21.707 23.129,21.8 
			23.129,21.801 24.194,22.603 24.058,22.788 22.99,21.986 22.865,21.891 22.496,22.382 22.621,22.476 22.701,22.37 23.769,23.17 
			23.288,23.808 24.985,24.102 25.39,24.458 24.134,24.454 		"/>
		<path d="M30.348,19.478c-0.558-0.201-1.17,0.088-1.37,0.645c-0.2,0.556,0.087,1.169,0.644,1.369
			c0.349,0.125,0.621,0.36,0.899,0.158c0.165-0.12,0.473-0.809,0.548-1.018c0.089-0.248,0.003-0.644-0.083-0.872
			C30.879,19.476,30.654,19.589,30.348,19.478z M30.194,20.12l0.041,0.363c0,0-0.172-0.238-0.146-0.069
			c-0.008,0.352-0.179,0.688-0.277,0.854c-0.042-0.008-0.084-0.016-0.126-0.031c-0.413-0.148-0.63-0.6-0.483-1.007
			c0.147-0.406,0.602-0.615,1.017-0.468c0.042,0.016,0.078,0.036,0.116,0.057C30.304,20.015,30.194,20.12,30.194,20.12z"/>
		<polygon points="29.036,19.44 27.701,17.672 27.209,17.888 28.226,19.069 26.443,18.388 26.371,18.587 25.116,18.134 
			25.162,18.008 25.016,17.956 24.807,18.536 24.953,18.587 26.208,19.04 26.13,19.256 24.875,18.804 24.729,18.751 24.52,19.33 
			24.666,19.382 24.712,19.255 25.967,19.708 25.88,19.952 27.5,20.536 26.389,20.851 26.691,21.236 28.557,20.77 		"/>
		<path d="M19.38,28.87c0.131,0.559-0.101,0.934-0.19,1.056c-0.167-0.575-0.728-0.966-1.342-0.893
			c-0.581,0.068-1.02,0.531-1.085,1.09c-0.122-0.164-0.334-0.507-0.341-0.901c-1.03,0.133-0.381,1.251,0.357,1.293
			c0.012,0.062,0.025,0.119,0.045,0.177c0.087,0.366,0.511,1.085,1.465,0.948c0.821-0.119,0.928-0.76,0.925-1.143
			c0.02-0.099,0.025-0.197,0.021-0.299C20.284,29.882,20.036,28.808,19.38,28.87z M18.615,30.55c0,0-0.109-0.024-0.15-0.369
			c-0.189-0.041-0.435,0.596-0.435,0.596l-0.057-0.471c-0.209-0.031-0.833,0.116-0.833,0.116l-0.026-0.017
			c-0.002-0.012-0.005-0.021-0.007-0.031c-0.059-0.488,0.292-0.935,0.781-0.993c0.481-0.058,0.921,0.284,0.988,0.763
			C18.709,30.23,18.615,30.55,18.615,30.55z"/>
		<polygon points="17.586,29.032 18.106,28.968 18.543,28.917 19.583,27.307 19.312,26.884 18.491,28.089 18.386,27.664 
			19.088,26.037 18.066,26.159 17.908,24.833 18.043,24.816 18.023,24.663 17.413,24.735 17.433,24.89 17.432,24.89 17.589,26.214 
			17.36,26.243 17.202,24.917 17.186,24.762 16.573,24.835 16.594,24.991 16.727,24.974 16.884,26.298 16.094,26.394 17.055,27.823 
			17.076,28.36 16.211,27.451 15.731,27.631 17.104,29.088 		"/>
		<path d="M22.689,27.952c-0.54,0.238-0.783,0.87-0.543,1.412c0.148,0.338,0.169,0.697,0.507,0.76
			c0.202,0.034,0.911-0.219,1.114-0.31c0.239-0.106,0.466-0.442,0.571-0.663c0.133-0.272-0.104-0.356-0.237-0.656
			C23.861,27.954,23.229,27.71,22.689,27.952z M23.535,28.83L23.3,29.108c0,0,0.055-0.289-0.05-0.152
			c-0.26,0.237-0.62,0.347-0.81,0.391c-0.023-0.036-0.047-0.071-0.064-0.112c-0.18-0.401-0.003-0.869,0.394-1.046
			c0.395-0.176,0.859,0.009,1.039,0.409c0.019,0.042,0.028,0.083,0.041,0.125C23.685,28.835,23.535,28.83,23.535,28.83z"/>
		<polygon points="23.575,25.335 23.079,25.128 22.931,26.679 22.188,24.921 21.994,25.008 21.452,23.789 21.576,23.734 
			21.514,23.591 20.95,23.84 21.015,23.984 21.557,25.204 21.346,25.296 20.804,24.079 20.739,23.933 20.18,24.183 20.242,24.327 
			20.364,24.272 20.906,25.493 20.671,25.595 21.369,27.17 20.372,26.585 20.305,27.073 21.931,28.096 23.224,27.521 		"/>
		<path d="M9.888,27.788c-0.212,0.534-0.614,0.711-0.759,0.76c0.19-0.567-0.048-1.207-0.596-1.498
			c-0.517-0.273-1.141-0.141-1.514,0.279c-0.005-0.204,0.015-0.606,0.234-0.935c-0.923-0.479-1.024,0.812-0.441,1.267
			c-0.024,0.057-0.048,0.111-0.063,0.171c-0.138,0.352-0.197,1.183,0.665,1.612c0.742,0.37,1.195-0.097,1.411-0.412
			c0.07-0.069,0.133-0.147,0.187-0.235C10.054,29.136,10.46,28.111,9.888,27.788z M8.748,28.55
			c-0.187-0.025-0.446,0.185-0.446,0.185s-0.076-0.082,0.086-0.389c-0.133-0.142-0.696,0.242-0.696,0.242l0.222-0.42
			c-0.153-0.145-0.752-0.378-0.752-0.378l-0.012-0.028c0.004-0.009,0.007-0.021,0.012-0.028c0.23-0.436,0.772-0.604,1.208-0.373
			C8.798,27.587,8.965,28.119,8.748,28.55z"/>
		<polygon points="11.258,25.292 10.35,24.81 10.973,23.631 11.092,23.696 11.166,23.557 10.622,23.269 10.548,23.409 
			10.548,23.408 9.924,24.585 9.722,24.478 10.345,23.299 10.417,23.163 9.875,22.875 9.801,23.011 9.92,23.076 9.296,24.253 
			8.591,23.881 8.569,25.604 8.282,26.058 8.088,24.818 7.59,24.693 7.891,26.673 8.319,26.9 8.783,27.145 9.171,27.351 
			10.941,26.621 10.96,26.119 9.601,26.641 9.754,26.23 		"/>
		<path d="M13.13,28.916c-0.58-0.109-1.141,0.271-1.25,0.853c-0.068,0.362-0.259,0.671-0.015,0.913
			c0.146,0.145,0.873,0.338,1.091,0.38c0.259,0.048,0.636-0.099,0.848-0.22c0.265-0.148,0.117-0.354,0.178-0.674
			C14.094,29.584,13.711,29.026,13.13,28.916z M13.645,30.208c-0.199,0-0.318-0.09-0.318-0.09l-0.354,0.098
			c0,0,0.21-0.207,0.046-0.156c-0.349,0.049-0.706-0.065-0.887-0.139c0.001-0.043,0.003-0.085,0.011-0.129
			c0.082-0.435,0.492-0.718,0.918-0.637c0.426,0.079,0.703,0.494,0.621,0.929C13.673,30.128,13.659,30.168,13.645,30.208z"/>
		<polygon points="14.051,28.007 14.441,26.14 14.233,26.101 14.481,24.791 14.615,24.815 14.645,24.663 14.039,24.546 
			14.009,24.701 13.762,26.011 13.535,25.968 13.784,24.659 13.812,24.503 13.208,24.39 13.18,24.543 13.312,24.568 13.062,25.878 
			12.811,25.832 12.488,27.523 12.001,26.474 11.669,26.836 12.423,28.603 13.812,28.868 15.348,27.27 15.057,26.818 		"/>
		<path d="M2.979,20.823C2.446,21.039,2.04,20.871,1.905,20.8c0.541-0.255,0.839-0.87,0.67-1.466
			c-0.162-0.563-0.688-0.922-1.249-0.9c0.144-0.145,0.447-0.409,0.836-0.477c-0.294-0.998-1.294-0.18-1.22,0.557
			c-0.058,0.021-0.114,0.044-0.166,0.072c-0.35,0.145-0.991,0.676-0.705,1.596c0.246,0.793,0.896,0.797,1.274,0.732
			c0.098,0.004,0.197-0.005,0.297-0.026C2.119,21.875,3.142,21.46,2.979,20.823z M1.639,20.528c-0.11-0.152-0.442-0.194-0.442-0.194
			s0.007-0.112,0.341-0.207c0.011-0.194-0.657-0.335-0.657-0.335l0.456-0.131c-0.002-0.211-0.247-0.806-0.247-0.806l0.013-0.026
			c0.011-0.004,0.02-0.01,0.029-0.013c0.473-0.135,0.97,0.142,1.105,0.615C2.369,19.898,2.101,20.384,1.639,20.528z"/>
		<polygon points="6.768,18.861 6.917,18.818 6.749,18.226 6.599,18.269 6.598,18.269 5.315,18.634 5.252,18.413 6.535,18.048 
			6.686,18.005 6.518,17.413 6.367,17.457 6.403,17.585 5.122,17.952 4.901,17.183 3.644,18.36 3.116,18.466 3.877,17.468 
			3.623,17.023 2.4,18.609 2.534,19.077 2.678,19.58 2.798,20.002 4.551,20.775 4.925,20.441 3.606,19.822 4.011,19.648 
			5.729,20.085 5.446,19.096 6.729,18.73 		"/>
		<path d="M2.926,23.631c-0.31,0.2-0.663,0.276-0.67,0.62c-0.002,0.205,0.359,0.865,0.481,1.051
			c0.144,0.221,0.511,0.392,0.745,0.461c0.29,0.088,0.336-0.16,0.61-0.339c0.496-0.322,0.636-0.983,0.313-1.479
			C4.083,23.45,3.422,23.308,2.926,23.631z M3.943,25.151c-0.037,0.023-0.076,0.042-0.115,0.061
			c-0.139-0.146-0.156-0.293-0.156-0.293L3.359,24.73c0,0,0.294,0.009,0.144-0.073c-0.276-0.22-0.44-0.558-0.513-0.737
			c0.031-0.028,0.063-0.057,0.101-0.081c0.368-0.24,0.858-0.141,1.094,0.222C4.42,24.421,4.312,24.912,3.943,25.151z"/>
		<polygon points="7.254,23.884 5.7,23.981 7.318,22.972 7.203,22.793 8.32,22.066 8.395,22.179 8.525,22.094 8.189,21.579 
			8.06,21.664 6.94,22.39 6.813,22.199 7.934,21.47 8.063,21.385 7.729,20.871 7.599,20.955 7.672,21.068 6.554,21.794 6.413,21.58 
			4.97,22.517 5.389,21.44 4.896,21.452 4.144,23.218 4.915,24.405 7.129,24.408 		"/>
		<path d="M2.376,8.731c0.067,0.071,0.146,0.135,0.23,0.188c-0.355,1.038,0.664,1.462,0.996,0.893
			c-0.53-0.22-0.701-0.625-0.747-0.77c0.566,0.2,1.209-0.029,1.506-0.572c0.282-0.514,0.16-1.139-0.254-1.518
			c0.204-0.003,0.605,0.023,0.93,0.249c0.492-0.915-0.795-1.038-1.258-0.461C3.724,6.716,3.667,6.69,3.608,6.674
			C3.261,6.532,2.43,6.458,1.985,7.314C1.604,8.051,2.062,8.511,2.376,8.731z M3.066,8.305c0.145-0.132-0.23-0.7-0.23-0.7
			l0.416,0.229c0.146-0.152,0.39-0.747,0.39-0.747L3.67,7.076C3.682,7.08,3.689,7.082,3.7,7.087C4.13,7.324,4.291,7.869,4.054,8.302
			c-0.234,0.427-0.767,0.583-1.195,0.36c0.028-0.188-0.178-0.449-0.178-0.449S2.764,8.138,3.066,8.305z"/>
		<polygon points="7.812,11.158 8.108,10.619 7.974,10.542 7.973,10.542 6.804,9.9 6.915,9.7 8.083,10.342 8.221,10.416 
			8.516,9.876 8.379,9.803 8.313,9.919 7.146,9.278 7.528,8.579 5.808,8.531 5.357,8.235 6.602,8.061 6.731,7.564 4.749,7.833 
			4.515,8.26 4.263,8.718 4.051,9.104 4.754,10.887 5.256,10.913 4.754,9.542 5.163,9.704 6.078,11.224 6.573,10.323 7.742,10.962 
			7.676,11.082 		"/>
		<path d="M1.045,14.252c0.579,0.12,1.144-0.254,1.263-0.833c0.12-0.578-0.252-1.144-0.832-1.263
			c-0.361-0.074-0.666-0.27-0.913-0.029c-0.146,0.144-0.352,0.867-0.396,1.085c-0.053,0.258,0.089,0.637,0.206,0.851
			C0.519,14.331,0.725,14.187,1.045,14.252z M1.013,13.243c0,0,0.202,0.211,0.154,0.049c-0.044-0.35,0.077-0.706,0.152-0.886
			c0.043,0.002,0.085,0.004,0.129,0.014c0.432,0.088,0.71,0.503,0.622,0.928c-0.087,0.424-0.507,0.695-0.938,0.606
			c-0.044-0.01-0.083-0.023-0.124-0.039c0.005-0.199,0.096-0.317,0.096-0.317L1.013,13.243z"/>
		<polygon points="4.412,11.993 2.632,12.719 2.348,14.104 3.92,15.663 4.376,15.378 3.203,14.355 5.062,14.775 5.105,14.568 
			6.413,14.835 6.387,14.969 6.539,15 6.663,14.397 6.511,14.367 5.204,14.098 5.25,13.872 6.557,14.141 6.709,14.17 6.833,13.571 
			6.681,13.538 6.652,13.669 5.347,13.4 5.397,13.148 3.712,12.801 4.769,12.33 		"/>
		<path d="M11.768,2.995c-0.141-0.557,0.083-0.937,0.173-1.06c0.177,0.573,0.744,0.952,1.356,0.868
			c0.58-0.08,1.01-0.551,1.066-1.109c0.125,0.162,0.343,0.5,0.355,0.894c1.028-0.15,0.358-1.257-0.381-1.286
			c-0.013-0.059-0.026-0.119-0.048-0.175c-0.094-0.365-0.53-1.075-1.482-0.921c-0.818,0.133-0.914,0.776-0.903,1.158
			c-0.018,0.098-0.022,0.197-0.015,0.299C10.845,1.997,11.11,3.065,11.768,2.995z M12.5,1.3c0,0,0.11,0.021,0.157,0.363
			c0.191,0.038,0.425-0.602,0.425-0.602l0.064,0.47c0.209,0.027,0.831-0.133,0.831-0.133l0.026,0.017
			c0.002,0.011,0.006,0.02,0.007,0.031c0.067,0.487-0.273,0.939-0.763,1.007c-0.481,0.067-0.926-0.267-1.002-0.744
			C12.413,1.621,12.5,1.3,12.5,1.3z"/>
		<polygon points="15.438,4.164 14.039,2.732 13.559,2.798 13.039,2.872 12.604,2.93 11.592,4.559 11.871,4.977 12.669,3.757 
			12.785,4.18 12.11,5.821 13.13,5.681 13.312,7.001 13.179,7.02 13.2,7.175 13.81,7.091 13.788,6.936 13.789,6.936 13.605,5.616 
			13.833,5.583 14.017,6.906 14.038,7.06 14.646,6.975 14.625,6.821 14.492,6.84 14.31,5.518 15.101,5.409 14.111,3.997 
			14.08,3.459 14.96,4.354 		"/>
		<path d="M6.374,4.417c0.337,0.488,1.002,0.61,1.488,0.274c0.486-0.335,0.609-1,0.273-1.489C7.926,2.899,7.84,2.549,7.497,2.552
			C7.292,2.555,6.642,2.935,6.459,3.061C6.243,3.21,6.083,3.582,6.02,3.818C5.938,4.111,6.188,4.15,6.374,4.417z M6.871,3.986
			l0.178-0.318c0,0,0.001,0.293,0.079,0.141c0.21-0.282,0.544-0.455,0.723-0.533c0.029,0.029,0.058,0.059,0.084,0.097
			c0.249,0.362,0.164,0.854-0.192,1.101C7.386,4.72,6.895,4.625,6.645,4.264C6.62,4.227,6.601,4.188,6.582,4.148
			C6.723,4.008,6.871,3.986,6.871,3.986z"/>
		<polygon points="7.476,7.427 8,7.538 7.861,5.986 8.915,7.578 9.09,7.456 9.847,8.555 9.735,8.629 9.825,8.76 10.332,8.411 
			10.243,8.282 9.484,7.184 9.675,7.053 10.433,8.15 10.521,8.28 11.026,7.931 10.938,7.801 10.828,7.877 10.069,6.78 10.282,6.634 
			9.305,5.216 10.393,5.605 10.37,5.116 8.583,4.41 7.418,5.212 		"/>
		<path d="M9.424,10.782c-1.072,1.387-1.712,3.123-1.712,5.007c0,4.522,3.681,8.204,8.204,8.204c3.182,0,5.944-1.822,7.305-4.478
			c0.291-0.567,0.518-1.174,0.67-1.807c0.038-0.161,0.071-0.322,0.101-0.486c0.083-0.467,0.128-0.945,0.128-1.435
			c0-0.028-0.001-0.057-0.002-0.085c-0.002-0.24-0.015-0.479-0.037-0.713c-0.075-0.781-0.263-1.531-0.543-2.233h0.007l-0.023-0.138
			l-0.045-0.02c-0.373-0.881-0.897-1.684-1.538-2.377c-0.042-0.045-0.085-0.09-0.128-0.133c-0.122-0.127-0.246-0.249-0.375-0.367
			c-1.459-1.327-3.397-2.138-5.519-2.138c-2.141,0-4.093,0.825-5.555,2.174C10.021,10.072,9.708,10.414,9.424,10.782z M9.559,11.764
			L9.57,11.9L9.257,12.28C9.352,12.104,9.452,11.932,9.559,11.764z M21.389,10.994l0.002-0.366c0.129,0.137,0.253,0.276,0.371,0.423
			l-0.147,0.22l-0.517-0.005l-0.032-0.107L21.389,10.994z M11.493,10.082v-0.013h0.164l0.015-0.057h0.269v0.117l-0.077,0.104h-0.37
			L11.493,10.082L11.493,10.082z M11.755,10.449c0,0,0.164-0.027,0.178-0.027c0.015,0,0,0.164,0,0.164l-0.37,0.022l-0.07-0.084
			L11.755,10.449z M10.991,14.384l0.199-0.368l0.46-0.232h0.889l-0.003,0.271l0.319,0.148l-0.025-0.462l0.229-0.232l0.465-0.305
			l0.031-0.215l0.463-0.481l0.493-0.272L14.466,12.2l0.333-0.313l0.123,0.032l0.056,0.07l0.126-0.141l0.031-0.014l-0.139-0.019
			l-0.141-0.047v-0.137l0.074-0.062h0.165l0.075,0.033l0.065,0.131l0.08-0.012v-0.012l0.022,0.008l0.23-0.036l0.033-0.112
			l0.131,0.033v0.121l-0.122,0.085l0.019,0.134l0.417,0.129c0,0,0.001,0.002,0.001,0.005l0.097-0.009l0.007-0.181l-0.331-0.151
			l-0.019-0.086l0.274-0.094l0.013-0.264l-0.287-0.175l-0.02-0.444l-0.394,0.193h-0.145l0.038-0.338L14.742,10.4l-0.222,0.168v0.512
			l-0.399,0.127l-0.159,0.332l-0.174,0.029v-0.425l-0.375-0.052l-0.188-0.123l-0.075-0.275L13.82,10.3l0.328-0.101l0.033,0.222
			l0.183-0.01l0.015-0.111l0.191-0.027l0.003-0.038L14.492,10.2l-0.019-0.117l0.235-0.02l0.142-0.146l0.008-0.012h0.002l0.043-0.044
			l0.495-0.062l0.222,0.186l-0.573,0.306l0.729,0.172l0.095-0.244h0.319l0.111-0.213l-0.226-0.056V9.68L15.37,9.367l-0.487,0.056
			l-0.275,0.145l0.019,0.35l-0.288-0.043l-0.044-0.193l0.275-0.251l-0.5-0.024L13.924,9.45l-0.063,0.169l0.188,0.032l-0.038,0.187
			l-0.319,0.016l-0.05,0.125L13.18,9.993c0,0-0.013-0.263-0.031-0.263s0.362-0.007,0.362-0.007l0.276-0.269l-0.15-0.075l-0.2,0.193
			l-0.332-0.018l-0.2-0.275h-0.426l-0.443,0.331h0.406l0.037,0.12l-0.105,0.1l0.45,0.013l0.069,0.162l-0.508-0.018L12.36,9.86
			l-0.319-0.069l-0.169-0.094l-0.38,0.004c1.243-0.906,2.771-1.442,4.424-1.442c1.903,0,3.644,0.712,4.971,1.882l-0.091,0.159
			l-0.347,0.136l-0.146,0.159l0.032,0.186l0.18,0.024l0.108,0.271l0.309-0.125l0.052,0.361h-0.094l-0.254-0.038l-0.28,0.048
			l-0.273,0.385l-0.39,0.062l-0.056,0.332l0.165,0.039l-0.049,0.215l-0.387-0.077l-0.354,0.077l-0.075,0.197l0.062,0.414
			l0.208,0.098l0.35-0.002l0.235-0.021l0.072-0.188l0.369-0.479l0.241,0.05l0.238-0.216l0.044,0.169l0.59,0.396l-0.072,0.096
			l-0.265-0.014L21.113,13l0.163,0.036l0.19-0.08l-0.004-0.23l0.085-0.042l-0.066-0.072l-0.394-0.219l-0.104-0.291h0.326
			l0.104,0.104l0.281,0.242l0.012,0.293l0.291,0.31l0.107-0.425l0.202-0.109l0.038,0.347l0.195,0.216l0.394-0.007
			c0.076,0.196,0.144,0.395,0.204,0.597l-0.042,0.039h-0.603l-0.365-0.272l-0.385,0.037v0.235h-0.122l-0.132-0.094l-0.666-0.169
			v-0.432l-0.845,0.065l-0.264,0.141h-0.335l-0.165-0.017l-0.406,0.227v0.426l-0.832,0.601l0.067,0.256h0.169l-0.044,0.244
			l-0.118,0.044l-0.007,0.638l0.721,0.819h0.312l0.02-0.05h0.562l0.162-0.149h0.319l0.175,0.175l0.476,0.05l-0.062,0.633
			l0.527,0.933l-0.277,0.532l0.019,0.25l0.221,0.219v0.602l0.286,0.388v0.501h0.248c-1.382,1.695-3.484,2.782-5.838,2.782
			c-4.151,0-7.529-3.378-7.529-7.528c0-1.045,0.215-2.041,0.601-2.946v0.428l0.313,0.15v0.596l0.3,0.512l0.244,0.038l0.031-0.175
			l-0.285-0.452l-0.057-0.432h0.169l0.071,0.444l0.416,0.607l-0.107,0.196l0.265,0.404l0.657,0.162v-0.105l0.262,0.037l-0.024,0.188
			l0.206,0.037l0.319,0.088l0.451,0.514l0.575,0.043l0.056,0.47l-0.394,0.275l-0.019,0.419l-0.057,0.257l0.569,0.713l0.044,0.244
			c0,0,0.206,0.056,0.231,0.056c0.024,0,0.463,0.332,0.463,0.332v1.289l0.156,0.044l-0.106,0.596L14,21.171l-0.049,0.59l0.348,0.609
			l0.446,0.39l0.447,0.009l0.044-0.145l-0.329-0.277l0.02-0.137l0.059-0.169l0.013-0.173l-0.223-0.006l-0.112-0.142l0.186-0.179
			l0.024-0.135l-0.207-0.06l0.013-0.125l0.294-0.045l0.448-0.215l0.149-0.275l0.47-0.601l-0.106-0.47l0.145-0.25l0.433,0.013
			l0.288-0.228l0.095-0.905l0.321-0.409l0.058-0.264l-0.294-0.095l-0.194-0.317l-0.663-0.007l-0.524-0.2l-0.025-0.375l-0.175-0.308
			l-0.476-0.007l-0.275-0.432l-0.243-0.118l-0.013,0.131l-0.444,0.026l-0.163-0.228l-0.463-0.094l-0.382,0.441l-0.601-0.104
			l-0.044-0.677l-0.438-0.075l0.175-0.332l-0.05-0.19l-0.576,0.385l-0.362-0.044l-0.129-0.283L10.991,14.384z M12.188,11.312
			l0.197-0.094l0.178,0.042l-0.061,0.239l-0.192,0.062L12.188,11.312z M13.232,11.875v0.155h-0.45l-0.169-0.048l0.042-0.107
			l0.217-0.09h0.295v0.09H13.232z M13.439,12.091v0.15l-0.113,0.072l-0.14,0.026c0,0,0-0.226,0-0.249L13.439,12.091L13.439,12.091z
			 M13.312,12.031v-0.179l0.154,0.141L13.312,12.031z M13.383,12.391v0.146l-0.107,0.107h-0.239l0.037-0.164l0.113-0.01l0.023-0.057
			L13.383,12.391z M12.788,12.091h0.249l-0.319,0.446l-0.132-0.071l0.028-0.188L12.788,12.091z M13.807,12.34v0.146h-0.239
			l-0.066-0.095v-0.136h0.02L13.807,12.34z M13.585,12.139l0.068-0.071l0.114,0.071l-0.092,0.076L13.585,12.139z"/>
	</g>
</g>
<g>
</g>
<g>
</g>
<g>
</g>
<g>
</g>
<g>
</g>
<g>
</g>
<g>
</g>
<g>
</g>
<g>
</g>
<g>
</g>
<g>
</g>
<g>
</g>
<g>
</g>
<g>
</g>
<g>
</g>
</svg>
